<svg version="1.2" xmlns="http://www.w3.org/2000/svg" viewBox="0 0 78 40" width="78" height="40">
	<title>logo-svg</title>
	<style>
		.s0 { fill: #090909 } 
	</style>
	<filter id="f0">
		<feFlood flood-color="#ffffff" flood-opacity="1" />
		<feBlend mode="normal" in2="SourceGraphic"/>
		<feComposite in2="SourceAlpha" operator="in" />
	</filter>
	<g id="Page-1" filter="url(#f0)">
		<path id="Rey-Logo" fill-rule="evenodd" class="s0" d="m62 40h-9.3l6.7-15-10.2-24.1h9.3l5.1 14.2 5.1-14.2h9.3zm-44.2-40v9.4c-1.6-0.5-3.1-0.4-4.7 0-2.4 0.7-4.6 3.5-4.6 7.7v9.5h-8.5v-25.8h8.5v4.8c1.7-3.7 4.5-5.3 9.3-5.6zm24.3 17.4l4.3 5.8c-2.8 2.7-6.3 4.2-10.4 4.2-8.8 0-14.2-6.1-14.2-13.7 0-7.6 5.4-13.7 14.2-13.7 3.7 0 10.1 1.7 12.1 10.3l-15.1 9.1c0.7 0.3 1.7 0.5 2.7 0.5 2.5 0 4.8-1 6.4-2.5zm-12.1-3.2l8.8-5.3c-0.5-0.7-1.4-1.4-2.8-1.4-3.6 0-6.6 2.6-6 6.7z"/>
	</g>
</svg>